<?xml version="1.0" encoding="UTF-8" standalone="no"?>
<!-- Created with Inkscape (http://www.inkscape.org/) -->

<svg
   xmlns:dc="http://purl.org/dc/elements/1.1/"
   xmlns:cc="http://creativecommons.org/ns#"
   xmlns:rdf="http://www.w3.org/1999/02/22-rdf-syntax-ns#"
   xmlns:svg="http://www.w3.org/2000/svg"
   xmlns="http://www.w3.org/2000/svg"
   xmlns:sodipodi="http://sodipodi.sourceforge.net/DTD/sodipodi-0.dtd"
   xmlns:inkscape="http://www.inkscape.org/namespaces/inkscape"
   width="89mm"
   height="30mm"
   viewBox="0 0 89.000001 30"
   version="1.1"
   id="svg878"
   inkscape:version="0.92.2 (unknown)"
   sodipodi:docname="tymly_logo_only.svg">
  <defs
     id="defs872" />
  <sodipodi:namedview
     id="base"
     pagecolor="#ffffff"
     bordercolor="#666666"
     borderopacity="1.0"
     inkscape:pageopacity="0.0"
     inkscape:pageshadow="2"
     inkscape:zoom="0.98994949"
     inkscape:cx="157.28213"
     inkscape:cy="31.392858"
     inkscape:document-units="mm"
     inkscape:current-layer="layer1"
     showgrid="false"
     inkscape:window-width="1323"
     inkscape:window-height="744"
     inkscape:window-x="43"
     inkscape:window-y="24"
     inkscape:window-maximized="1" />
  <metadata
     id="metadata875">
    <rdf:RDF>
      <cc:Work
         rdf:about="">
        <dc:format>image/svg+xml</dc:format>
        <dc:type
           rdf:resource="http://purl.org/dc/dcmitype/StillImage" />
        <dc:title></dc:title>
      </cc:Work>
    </rdf:RDF>
  </metadata>
  <g
     inkscape:label="Layer 1"
     inkscape:groupmode="layer"
     id="layer1"
     transform="translate(0,-267)">
    <g
       aria-label="tymly"
       style="font-style:normal;font-weight:normal;font-size:1.58667731px;line-height:0%;font-family:sans-serif;letter-spacing:0px;word-spacing:0px;fill:#26a3e3;fill-opacity:1;stroke:none;stroke-width:0.13222311px;stroke-linecap:butt;stroke-linejoin:miter;stroke-opacity:1"
       id="text4189">
      <path
         d="m 17.110255,282.4561 c 1.276074,-0.9925 2.12679,-2.52379 2.12679,-4.31029 0,-2.55215 -1.729789,-4.45208 -3.856578,-5.13266 -0.90743,-2.15514 -3.176006,-3.62972 -5.5863668,-3.62972 -2.7222904,0 -5.1610088,1.81486 -5.926653,4.39537 -1.3327879,0.87907 -2.3536468,2.35365 -2.3536468,4.36701 0,1.84321 0.8790729,3.31779 2.1551465,4.25357 v 2.26858 c 0,5.33115 3.6013633,7.94001 8.3653711,7.94001 0.935788,0 2.410362,-0.0284 3.856578,-0.68057 1.588003,-0.68057 3.374506,-2.26857 3.374506,-4.99086 0,-1.58801 -0.680573,-3.37451 -2.155147,-4.48044 z m -3.176005,2.49543 c 1.332788,0 1.871575,0.87908 1.871575,1.98501 0,1.87157 -2.183504,2.21186 -3.771507,2.21186 -3.2043623,0 -4.9057938,-1.41786 -4.9057938,-4.48044 v -4.59386 c -1.2193592,0 -2.1551465,-0.82236 -2.1551465,-1.92829 0,-1.10593 0.9357873,-1.89994 2.1551465,-1.89994 v -0.87907 c 0,-1.36114 1.191002,-2.52379 2.665576,-2.52379 1.4745738,0 2.6088618,1.16265 2.6088618,2.52379 v 0.87907 h 1.389502 c 1.105931,0 1.956646,0.79401 1.956646,1.89994 0,1.10593 -0.850715,1.92829 -1.956646,1.92829 h -1.389502 v 3.40286 c 0,1.10593 0.538786,1.47457 1.531288,1.47457 z"
         style="font-style:normal;font-variant:normal;font-weight:normal;font-stretch:normal;font-size:28.35719109px;line-height:125%;font-family:'Vacaciones ffp';-inkscape-font-specification:'Vacaciones ffp, Normal';text-align:start;writing-mode:lr-tb;text-anchor:start;fill:#26a3e3;fill-opacity:1;stroke-width:0.13222311px"
         id="path1460" />
      <path
         d="m 26.040112,274.51609 c -1.10593,-1.10593 -2.580504,-1.70144 -4.168507,-1.70144 -3.43122,0 -5.898296,2.86408 -5.898296,5.8983 0,0.68057 0.113429,1.41786 0.425358,2.12679 0.226858,0.53879 0.482072,1.07757 0.765644,1.61636 0.482073,0.93579 1.134288,2.12679 1.899932,3.06258 -2.211861,0.85071 -3.261077,2.94914 -3.261077,4.79236 0,3.37451 2.949148,4.96251 4.168507,5.33115 1.361145,0.48208 2.693933,0.53879 3.601364,0.53879 4.849079,-0.0851 7.287798,-2.94915 8.819086,-6.83408 l 3.346148,-8.64895 c 0.255215,-0.68057 0.397001,-1.36114 0.397001,-2.01336 0,-3.176 -2.580504,-5.86994 -5.95501,-5.86994 -1.588003,0 -3.034219,0.59551 -4.14015,1.70144 z m -2.495433,18.20531 c -0.765644,0 -1.61636,-0.0283 -2.438718,-0.34028 -0.794001,-0.28358 -1.843218,-1.02086 -1.843218,-2.07008 0,-0.82236 0.538787,-1.588 1.531289,-1.588 0.425358,0 0.737287,0.11343 1.077573,0.31193 0.538787,0.25521 1.049216,0.42536 1.81486,0.42536 l -4.083435,-9.95338 c -0.113429,-0.28357 -0.170143,-0.53879 -0.170143,-0.794 0,-1.21936 1.077573,-2.43872 2.438718,-2.43872 1.10593,0 2.013361,0.68057 2.353647,1.61636 l 1.899932,5.52965 1.729788,-5.47293 c 0.311929,-0.99251 1.304431,-1.67308 2.32529,-1.67308 1.446217,0 2.467076,1.16265 2.467076,2.41036 0,0.25522 -0.05671,0.48208 -0.141786,0.73729 l -3.346149,8.64894 c -1.219359,3.14765 -2.750647,4.62223 -5.614724,4.65058 z"
         style="font-style:normal;font-variant:normal;font-weight:normal;font-stretch:normal;font-size:28.35719109px;line-height:125%;font-family:'Vacaciones ffp';-inkscape-font-specification:'Vacaciones ffp, Normal';text-align:start;writing-mode:lr-tb;text-anchor:start;fill:#26a3e3;fill-opacity:1;stroke-width:0.13222311px"
         id="path1462" />
      <path
         d="m 38.765401,272.50273 c -2.835719,0 -6.125153,2.07007 -6.125153,6.09679 v 7.74151 c 0,3.45958 2.949148,5.98337 6.125153,5.98337 1.673075,0 3.176006,-0.62386 4.310293,-1.72979 1.134288,1.10593 2.637219,1.72979 4.310293,1.72979 1.673075,0 3.176006,-0.62386 4.310293,-1.72979 1.134288,1.10593 2.693934,1.72979 4.310294,1.72979 3.261076,0 6.125153,-2.46707 6.125153,-5.98337 v -5.86993 c 0,-4.67894 -3.23272,-8.02509 -7.968371,-8.02509 -1.729789,0 -3.147648,0.45372 -4.310293,1.10593 -1.219359,-0.73729 -2.637219,-1.10593 -4.225221,-1.10593 -1.21936,0 -2.438719,0.25522 -3.658078,0.90743 -0.992502,-0.53879 -2.098432,-0.85071 -3.204363,-0.85071 z m -2.665576,6.09679 c 0,-1.70143 1.332788,-2.60886 2.665576,-2.60886 1.21936,0 2.268576,0.5955 2.722291,2.09843 1.588002,-1.72979 2.977505,-2.1835 4.14015,-2.1835 1.81486,0 3.147648,0.73729 3.970006,2.24022 1.21936,-1.27608 2.52379,-2.24022 4.565508,-2.24022 2.807362,0 4.508793,1.72979 4.508793,4.56551 v 5.86993 c 0,1.38951 -1.191002,2.52379 -2.665575,2.52379 -1.446217,0 -2.637219,-1.13428 -2.637219,-2.52379 v -4.1685 c 0,-1.21936 -0.737287,-1.87158 -1.61636,-1.87158 -0.879073,0 -1.701432,0.65222 -1.701432,1.87158 v 4.1685 c 0,1.38951 -1.191002,2.52379 -2.665576,2.52379 -1.474574,0 -2.637218,-1.13428 -2.637218,-2.52379 v -4.1685 c 0,-1.21936 -0.737287,-1.87158 -1.61636,-1.87158 -0.90743,0 -1.729789,0.65222 -1.729789,1.87158 v 4.1685 c 0,1.38951 -1.162645,2.52379 -2.637219,2.52379 -1.474574,0 -2.665576,-1.13428 -2.665576,-2.52379 z"
         style="font-style:normal;font-variant:normal;font-weight:normal;font-stretch:normal;font-size:28.35719109px;line-height:125%;font-family:'Vacaciones ffp';-inkscape-font-specification:'Vacaciones ffp, Normal';text-align:start;writing-mode:lr-tb;text-anchor:start;fill:#26a3e3;fill-opacity:1;stroke-width:0.13222311px"
         id="path1464" />
      <path
         d="m 70.92157,274.43101 c 0,-3.45957 -2.864076,-6.01172 -6.125153,-6.01172 -3.261077,0 -6.125154,2.55215 -6.125154,6.01172 v 11.91002 c 0,3.45958 2.949148,5.98337 6.125154,5.98337 3.176005,0 6.125153,-2.52379 6.125153,-5.98337 z m -6.125153,-2.55214 c 1.474574,0 2.637219,1.10593 2.637219,2.55214 v 11.91002 c 0,1.38951 -1.162645,2.52379 -2.637219,2.52379 -1.474574,0 -2.665576,-1.13428 -2.665576,-2.52379 v -11.91002 c 0,-1.44621 1.191002,-2.55214 2.665576,-2.55214 z"
         style="font-style:normal;font-variant:normal;font-weight:normal;font-stretch:normal;font-size:28.35719109px;line-height:125%;font-family:'Vacaciones ffp';-inkscape-font-specification:'Vacaciones ffp, Normal';text-align:start;writing-mode:lr-tb;text-anchor:start;fill:#26a3e3;fill-opacity:1;stroke-width:0.13222311px"
         id="path1466" />
      <path
         d="m 77.659064,274.51609 c -1.105931,-1.10593 -2.580504,-1.70144 -4.168507,-1.70144 -3.43122,0 -5.898296,2.86408 -5.898296,5.8983 0,0.68057 0.113429,1.41786 0.425358,2.12679 0.226857,0.53879 0.482072,1.07757 0.765644,1.61636 0.482072,0.93579 1.134288,2.12679 1.899932,3.06258 -2.211861,0.85071 -3.261077,2.94914 -3.261077,4.79236 0,3.37451 2.949148,4.96251 4.168507,5.33115 1.361145,0.48208 2.693933,0.53879 3.601363,0.53879 4.84908,-0.0851 7.287798,-2.94915 8.819087,-6.83408 l 3.346148,-8.64895 c 0.255215,-0.68057 0.397001,-1.36114 0.397001,-2.01336 0,-3.176 -2.580504,-5.86994 -5.95501,-5.86994 -1.588003,0 -3.03422,0.59551 -4.14015,1.70144 z m -2.495433,18.20531 c -0.765644,0 -1.61636,-0.0283 -2.438718,-0.34028 -0.794002,-0.28358 -1.843218,-1.02086 -1.843218,-2.07008 0,-0.82236 0.538787,-1.588 1.531289,-1.588 0.425357,0 0.737287,0.11343 1.077573,0.31193 0.538786,0.25521 1.049216,0.42536 1.81486,0.42536 l -4.083435,-9.95338 c -0.113429,-0.28357 -0.170144,-0.53879 -0.170144,-0.794 0,-1.21936 1.077574,-2.43872 2.438719,-2.43872 1.10593,0 2.01336,0.68057 2.353647,1.61636 l 1.899932,5.52965 1.729788,-5.47293 c 0.311929,-0.99251 1.304431,-1.67308 2.32529,-1.67308 1.446217,0 2.467075,1.16265 2.467075,2.41036 0,0.25522 -0.05671,0.48208 -0.141786,0.73729 l -3.346148,8.64894 c -1.219359,3.14765 -2.750648,4.62223 -5.614724,4.65058 z"
         style="font-style:normal;font-variant:normal;font-weight:normal;font-stretch:normal;font-size:28.35719109px;line-height:125%;font-family:'Vacaciones ffp';-inkscape-font-specification:'Vacaciones ffp, Normal';text-align:start;writing-mode:lr-tb;text-anchor:start;fill:#26a3e3;fill-opacity:1;stroke-width:0.13222311px"
         id="path1468" />
    </g>
  </g>
</svg>
